<?xml version="1.0" encoding="UTF-8"?>
<svg id="Layer_1" data-name="Layer 1" xmlns="http://www.w3.org/2000/svg" viewBox="0 0 176.97 181.04">
  <defs>
    <style>
      .cls-1 {
        fill: #cb2e32;
      }

      .cls-2 {
        stroke-width: 4.42px;
      }

      .cls-2, .cls-3 {
        stroke: #0564a7;
      }

      .cls-2, .cls-3, .cls-4 {
        fill: none;
        stroke-linecap: round;
        stroke-linejoin: round;
      }

      .cls-3, .cls-4 {
        stroke-width: 4.58px;
      }

      .cls-5 {
        fill: #0564a7;
      }

      .cls-4 {
        stroke: #cb2e32;
      }
    </style>
  </defs>
  <path class="cls-1" d="M108.99,96.26c.4,0,.79.2.99.62l4.14,8.23,9.13,1.25c.92.13,1.3,1.25.64,1.91l-6.56,6.47,1.63,9.06c.13.73-.44,1.32-1.1,1.32-.18,0-.35-.04-.51-.13l-8.18-4.22-8.12,4.36c-.18.09-.35.13-.53.13-.64,0-1.23-.57-1.1-1.3l1.5-9.09-6.64-6.38c-.66-.64-.31-1.78.62-1.91l9.11-1.39,4.03-8.29c.2-.42.62-.64,1.01-.64M108.99,91.68c-2.2,0-4.16,1.23-5.13,3.21l-2.97,6.14-6.73,1.03c-2.16.33-3.89,1.83-4.55,3.89-.66,2.09-.09,4.31,1.47,5.83l4.91,4.71-1.1,6.73c-.26,1.65.2,3.32,1.28,4.6s2.66,2,4.33,2c.92,0,1.85-.24,2.68-.68l6.01-3.21,6.05,3.12c.81.42,1.72.64,2.62.64,1.69,0,3.28-.75,4.36-2.05,1.08-1.3,1.54-2.99,1.23-4.64l-1.21-6.71,4.84-4.8c1.54-1.54,2.09-3.76,1.39-5.85-.68-2.07-2.46-3.54-4.62-3.83l-6.75-.92-3.06-6.09c-.97-1.94-2.93-3.12-5.08-3.12h.04Z"/>
  <g>
    <path class="cls-3" d="M101.44,70.3v-31.4c0-7.37-5.96-13.33-13.33-13.33H30.57c-7.37,0-13.33,5.96-13.33,13.33v63.85l14.61-15.69h24.73"/>
    <path class="cls-4" d="M80.3,80.48h57.54c7.37,0,13.33,5.96,13.33,13.33v63.85l-14.61-15.69h-56.28c-7.37,0-13.33-5.96-13.33-13.33v-34.83c0-7.37,5.96-13.33,13.33-13.33h.02Z"/>
    <g>
      <path class="cls-3" d="M90.97,177.4c-12.32,2.44-25.21,1.54-37.07-2.6-12.74-4.44-24.05-12.59-32.34-23.19-6.07-7.77-10.5-16.79-12.87-26.36"/>
      <polyline class="cls-2" points="2.21 149.64 8.66 125.26 33.04 131.71"/>
    </g>
    <g>
      <path class="cls-4" d="M85.95,3.63c12.32-2.44,25.21-1.54,37.07,2.6,12.74,4.44,24.05,12.59,32.34,23.19,6.07,7.77,10.5,16.79,12.87,26.36"/>
      <polyline class="cls-4" points="174.69 31.4 168.24 55.78 143.86 49.31"/>
    </g>
  </g>
  <circle class="cls-5" cx="40.36" cy="57.45" r="4.49"/>
  <circle class="cls-5" cx="58.49" cy="57.45" r="4.49"/>
  <circle class="cls-5" cx="76.62" cy="57.45" r="4.49"/>
</svg>