<?xml version="1.0" encoding="UTF-8"?>
<svg id="Layer_1" data-name="Layer 1" xmlns="http://www.w3.org/2000/svg" viewBox="0 0 193.17 193.17">
  <defs>
    <style>
      .cls-1 {
        stroke: #cb2e32;
      }

      .cls-1, .cls-2 {
        fill: none;
        stroke-linecap: round;
        stroke-linejoin: round;
        stroke-width: 4.88px;
      }

      .cls-2 {
        stroke: #0564a7;
      }
    </style>
  </defs>
  <line class="cls-2" x1="2.44" y1="150.29" x2="21.95" y2="130.78"/>
  <g>
    <line class="cls-1" x1="190.74" y1="42.91" x2="180" y2="53.65"/>
    <line class="cls-1" x1="132.26" y1="20.47" x2="150.29" y2="2.44"/>
    <g>
      <path class="cls-2" d="M149.12,61.12c-4.97-2.18-7.13-8.11-4.6-13.01,2.3-4.48,7.85-6.19,12.45-4.17l22.86,10.53c4.67,2.16,6.75,7.64,4.69,12.33h0c-2.11,4.85-7.78,7.01-12.59,4.81l-22.84-10.5.02.02Z"/>
      <path class="cls-2" d="M169.47,70.69s-14.28-6.71-23.66-11.09c-4.53-2.11-9.94-.45-12.47,3.87h0c-2.93,4.99-.87,11.44,4.43,13.79l23.82,10.55c4.81,2.2,10.48.05,12.59-4.78,2.06-4.71-.05-10.2-4.71-12.36v.02Z"/>
      <path class="cls-2" d="M128.42,93.53c-4.97-2.18-7.13-8.11-4.6-13.01,2.3-4.48,7.85-6.19,12.45-4.17l22.86,10.53c4.67,2.16,6.75,7.64,4.69,12.33h0c-2.11,4.85-7.78,7.01-12.59,4.81l-22.84-10.5.02.02Z"/>
    </g>
    <g>
      <path class="cls-1" d="M124.81,113.5c.02,12.61-.05,19.27-.07,38.57,0,4.71-3.82,8.51-8.53,8.51h0c-4.71,0-8.53-3.82-8.53-8.53v-12.94"/>
      <line class="cls-2" x1="51.39" y1="182.25" x2="42.91" y2="190.74"/>
      <path class="cls-1" d="M70.17,147.69v21.48c0,4.83,3.42,9.14,8.21,9.85,5.96.87,11.07-3.75,11.07-9.54v-26.05"/>
      <path class="cls-1" d="M107.67,136.97v24.15c0,4.57-3.24,8.65-7.76,9.28-5.63.8-10.46-3.54-10.46-9"/>
    </g>
    <path class="cls-2" d="M63.16,68.72l19.3-32.4c2.79-4.69,7.48-7.97,12.87-8.98l35.59-6.71c.47-.09.94-.14,1.41-.14,4.06,0,7.5,3.28,7.5,7.5,0,5.84-3.96,10.95-9.59,12.4l-23.14,5.3"/>
  </g>
  <path class="cls-1" d="M70.17,169.12v6.1c0,4.83-3.42,9.14-8.21,9.85-5.96.87-11.09-3.73-11.09-9.54v-58.36c0-5.65-6.82-8.49-10.83-4.48l-18.12,18.12h-.02v-5.09c0-2.74.21-5.46.63-8.18s1.06-5.37,1.9-7.97c1.78-5.56,4.24-10.86,7.32-15.76,3.07-4.92,6.75-9.45,10.95-13.51,7.83-7.53,18.01-12.12,28.82-13.01l.63-.05c9.38-.77,18.17-4.83,24.81-11.49l10.06-10.06"/>
  <path class="cls-2" d="M118.99,110.1c-4.97-2.18-7.13-8.11-4.6-13.01,2.3-4.48,7.85-6.19,12.45-4.17l22.86,10.53c4.67,2.16,6.75,7.64,4.69,12.33h0c-2.11,4.85-7.78,7.01-12.59,4.81l-22.84-10.5.02.02Z"/>
</svg>