<?xml version="1.0" encoding="UTF-8"?>
<svg id="Layer_1" data-name="Layer 1" xmlns="http://www.w3.org/2000/svg" viewBox="0 0 177.96 178.38">
  <defs>
    <style>
      .cls-1 {
        fill: #fff;
      }

      .cls-1, .cls-2, .cls-3 {
        stroke-linecap: round;
        stroke-linejoin: round;
        stroke-width: 4.44px;
      }

      .cls-1, .cls-3 {
        stroke: #cb2e32;
      }

      .cls-2 {
        stroke: #0564a7;
      }

      .cls-2, .cls-3 {
        fill: none;
      }
    </style>
  </defs>
  <g>
    <g>
      <path class="cls-1" d="M86.19,15.58c0,7.37-5.98,13.35-13.35,13.35s-13.35-5.98-13.35-13.35,5.98-13.35,13.35-13.35,13.35,5.98,13.35,13.35Z"/>
      <path class="cls-3" d="M86.19,15.58c0,7.37-5.98,13.35-13.35,13.35s-13.35-5.98-13.35-13.35,5.98-13.35,13.35-13.35,13.35,5.98,13.35,13.35Z"/>
    </g>
    <path class="cls-3" d="M54.42,112.21l-15.7,42.48c-1.5,3.93-5.9,5.92-9.83,4.42-3.93-1.5-5.92-5.9-4.42-9.83l27.24-95.29h-15.53l-11.22,19.83c-1.41,2.48-4,3.87-6.64,3.87-1.28,0-2.56-.32-3.74-.98-3.67-2.07-4.96-6.73-2.88-10.38l13.42-23.69c1.35-2.39,3.89-3.87,6.64-3.87h34.53c5.41,0,10.49,2.52,13.74,6.82l15.3,20.13,18.03-3.89c4.49-.94,8.95,2.26,9.23,7.09.21,3.82-2.71,7.11-6.45,7.93l-22.35,4.81c-.53.11-1.07.17-1.6.17-2.35,0-4.62-1.09-6.07-3.01l-12.56-16.64-11.39,32.82,25.7,1.58c1.41.47,2.46,1.6,2.97,3.53l9.29,31.73c1.39,3.97-.73,8.33-4.7,9.72-.83.28-1.69.43-2.5.43-3.16,0-6.11-1.97-7.2-5.13l-9.25-24.12-22.01-.47-.04-.02Z"/>
  </g>
  <path class="cls-2" d="M2.22,175.78h0c98,5.73,161.25-53.2,161.25-118.84v-17.97h12.26L151.25,2.24l-24.53,36.73h12.26"/>
</svg>