<?xml version="1.0" encoding="UTF-8"?>
<svg id="Layer_1" data-name="Layer 1" xmlns="http://www.w3.org/2000/svg" viewBox="0 0 138.67 197.8">
  <defs>
    <style>
      .cls-1 {
        stroke: #cb2e32;
      }

      .cls-1, .cls-2 {
        fill: none;
        stroke-linecap: round;
        stroke-linejoin: round;
        stroke-width: 4.99px;
      }

      .cls-2 {
        stroke: #0564a7;
      }
    </style>
  </defs>
  <g>
    <path class="cls-2" d="M136.17,69.34c0-36.79-29.72-66.65-66.49-66.85C32.97,2.3,3.27,31.18,2.51,67.88c-.41,19.46,7.5,37.08,20.42,49.54,8.32,8.03,12.82,19.22,12.82,30.8v30.18l16.71,16.92h33.75l16.71-16.92v-30.18c0-11.77,4.87-22.96,13.28-31.21,12.34-12.13,19.99-29,19.99-47.67h0Z"/>
    <line class="cls-2" x1="35.75" y1="178.41" x2="102.91" y2="178.41"/>
    <line class="cls-2" x1="35.75" y1="157.56" x2="102.91" y2="157.56"/>
    <line class="cls-2" x1="35.75" y1="136.69" x2="102.91" y2="136.69"/>
  </g>
  <g>
    <path class="cls-1" d="M115.2,77.18v-16.18h-12.18c-.86-3.6-2.28-6.95-4.15-10.02l8.6-8.6-11.46-11.46-8.6,8.6c-3.07-1.87-6.42-3.28-10.02-4.15v-12.18h-16.18v12.18c-3.6.86-6.95,2.28-10.02,4.15l-8.6-8.6-11.46,11.46,8.6,8.6c-1.87,3.07-3.28,6.42-4.15,10.02h-12.18v16.18h12.18c.86,3.6,2.28,6.95,4.15,10.02l-8.6,8.6,11.46,11.46,8.6-8.6c3.07,1.87,6.42,3.28,10.02,4.15v12.18h16.18v-12.18c3.6-.86,6.95-2.28,10.02-4.15l8.6,8.6,11.46-11.46-8.6-8.6c1.87-3.07,3.28-6.42,4.15-10.02h12.18Z"/>
    <circle class="cls-1" cx="68.27" cy="68.81" r="21.74"/>
  </g>
</svg>